<svg xmlns="http://www.w3.org/2000/svg" viewBox="0 0 64 64" role="img" aria-label="Magia circulo 9">
  <defs>
    <linearGradient id="bg" x1="0" y1="0" x2="1" y2="1">
      <stop offset="0" stop-color="#2b1b24"/>
      <stop offset="1" stop-color="#6f2138"/>
    </linearGradient>
  </defs>
  <circle cx="32" cy="32" r="30" fill="url(#bg)"/>
  <circle cx="32" cy="32" r="28" fill="none" stroke="#b88a2b" stroke-width="2"/>
  <path fill="#ffffff" d="M22 47c-2.8-3.2-4.4-7.3-4.4-11.6v-7.1c0-1.5 1.2-2.7 2.7-2.7s2.7 1.2 2.7 2.7v5.2h1.5V17.8c0-1.6 1.3-2.9 2.9-2.9s2.9 1.3 2.9 2.9v13.7h1.5V15.9c0-1.6 1.3-2.9 2.9-2.9s2.9 1.3 2.9 2.9v15.6h1.5V19.3c0-1.5 1.2-2.8 2.8-2.8 1.5 0 2.8 1.2 2.8 2.8v14.3h1.4v-7.2c0-1.4 1.1-2.6 2.6-2.6 1.4 0 2.6 1.1 2.6 2.6v11.1c0 8.1-6.6 14.7-14.7 14.7h-5.8c-3.1 0-6-1.1-8.3-3.2l-2-2z"/>
  <circle cx="49" cy="15" r="11" fill="#b88a2b"/>
  <text x="49" y="20" text-anchor="middle" font-family="Arial, Helvetica, sans-serif" font-size="15" font-weight="700" fill="#ffffff">9</text>
</svg>
